<svg xmlns="http://www.w3.org/2000/svg"  viewBox="0 0 24 24" width="48px" height="48px"><path d="M16.988,4.508c-1.918,0-2.72,1.178-4.049,1.178c-1.367,0-2.616-1.105-4.27-1.105	C6.419,4.582,3,6.667,3,11.576C3,16.043,7.047,21,9.331,21c1.388,0.014,1.725-0.874,3.608-0.883	c1.885-0.014,2.291,0.895,3.681,0.883c1.565-0.012,2.788-1.73,3.681-3.092c0.15-0.229,0.279-0.431,0.396-0.621	c0.549-0.897,0.332-2.038-0.48-2.707c-1.928-1.589-2.207-4.938-0.056-6.596c0.77-0.594,0.734-1.792-0.075-2.331	C19.069,4.973,17.853,4.508,16.988,4.508z" opacity=".35"/><path d="M16.612,0.811c0.074-0.481-0.345-0.912-0.816-0.79c-0.927,0.24-1.86,0.77-2.471,1.405c-0.531,0.555-0.978,1.31-1.079,2.102	c-0.057,0.45,0.325,0.852,0.771,0.773c0.997-0.177,1.933-0.736,2.541-1.409C16.071,2.326,16.492,1.597,16.612,0.811z"/></svg>